<svg width="953" height="473" viewBox="0 0 953 473" fill="none" xmlns="http://www.w3.org/2000/svg">
<path d="M953 382.478C953 586.153 822.31 382.478 472.162 382.478C122.014 382.478 0 586.153 0 382.478C112.785 514.691 122.014 316 472.162 316C822.31 316 822.196 526.204 953 382.478Z" fill="#0037FA"/>
<path d="M69.624 249C65.8693 249 63.992 247.123 63.992 243.368V77.224C63.992 73.4693 65.8693 71.592 69.624 71.592H92.152C94.2 71.592 95.8213 72.0187 97.016 72.872C98.3813 73.7253 99.7467 75.2613 101.112 77.48L178.68 205.48V77.224C178.68 73.4693 180.557 71.592 184.312 71.592H201.208C204.963 71.592 206.84 73.4693 206.84 77.224V243.368C206.84 247.123 204.963 249 201.208 249H178.68C174.925 249 172.109 247.293 170.232 243.88L92.152 115.112V243.368C92.152 247.123 90.2747 249 86.52 249H69.624ZM252.838 249C249.083 249 247.206 247.123 247.206 243.368V124.328C247.206 120.573 249.083 118.696 252.838 118.696H271.782C275.537 118.696 277.414 120.573 277.414 124.328V243.368C277.414 247.123 275.537 249 271.782 249H252.838ZM262.31 97.192C256.678 97.192 252.241 95.656 248.998 92.584C245.755 89.512 244.134 85.2453 244.134 79.784C244.134 74.3227 245.755 70.056 248.998 66.984C252.241 63.912 256.678 62.376 262.31 62.376C267.942 62.376 272.379 63.912 275.622 66.984C278.865 70.056 280.486 74.3227 280.486 79.784C280.486 85.2453 278.865 89.512 275.622 92.584C272.379 95.656 267.942 97.192 262.31 97.192ZM363.566 304.808C350.595 304.808 337.881 302.333 325.422 297.384C322.862 296.36 321.155 295.251 320.302 294.056C319.449 293.032 319.022 291.325 319.022 288.936V278.44C319.022 275.197 320.217 273.576 322.606 273.576C323.289 273.576 323.971 273.661 324.654 273.832C325.507 274.173 327.129 274.685 329.518 275.368C340.441 278.952 351.193 280.744 361.774 280.744C374.574 280.744 383.875 277.757 389.678 271.784C395.481 265.981 398.382 256.424 398.382 243.112V232.104C387.289 241.661 374.745 246.44 360.75 246.44C344.878 246.44 332.163 240.552 322.606 228.776C313.219 216.829 308.526 200.957 308.526 181.16C308.526 167.677 310.745 155.901 315.182 145.832C319.79 135.763 326.105 128.083 334.126 122.792C342.147 117.501 351.363 114.856 361.774 114.856C376.622 114.856 389.507 120.061 400.43 130.472L401.966 123.816C402.649 120.403 404.867 118.696 408.622 118.696H422.446C426.201 118.696 428.078 120.573 428.078 124.328V240.04C428.078 260.691 422.446 276.648 411.182 287.912C400.089 299.176 384.217 304.808 363.566 304.808ZM369.71 223.144C379.779 223.144 389.337 219.816 398.382 213.16V147.624C389.507 141.48 380.035 138.408 369.966 138.408C359.555 138.408 351.79 141.821 346.67 148.648C341.721 155.475 339.246 165.971 339.246 180.136C339.246 208.808 349.401 223.144 369.71 223.144ZM470.564 249C466.809 249 464.932 247.123 464.932 243.368V65.192C464.932 61.4373 466.809 59.56 470.564 59.56H489.508C493.263 59.56 495.14 61.4373 495.14 65.192V131.496C511.012 120.403 527.055 114.856 543.268 114.856C555.727 114.856 565.199 118.184 571.684 124.84C578.169 131.325 581.412 140.797 581.412 153.256V243.368C581.412 247.123 579.535 249 575.78 249H556.836C553.081 249 551.204 247.123 551.204 243.368V162.728C551.204 154.365 549.497 148.307 546.084 144.552C542.671 140.627 537.209 138.664 529.7 138.664C518.436 138.664 506.916 142.419 495.14 149.928V243.368C495.14 247.123 493.263 249 489.508 249H470.564ZM664.024 250.792C650.541 250.792 640.557 247.635 634.072 241.32C627.587 235.005 624.344 225.363 624.344 212.392V141.736H607.96C604.205 141.736 602.328 139.859 602.328 136.104V128.68C602.328 126.461 602.755 124.925 603.608 124.072C604.461 123.048 605.827 122.365 607.704 122.024L625.368 119.464L629.208 88.488C629.379 86.44 629.976 84.9893 631 84.136C632.024 83.2827 633.56 82.856 635.608 82.856H648.92C652.675 82.856 654.552 84.7333 654.552 88.488V118.696H686.04C689.795 118.696 691.672 120.573 691.672 124.328V136.104C691.672 139.859 689.795 141.736 686.04 141.736H654.552V210.856C654.552 216.659 655.917 220.84 658.648 223.4C661.549 225.789 666.328 226.984 672.984 226.984C676.909 226.984 680.067 226.728 682.456 226.216C684.845 225.704 686.808 225.448 688.344 225.448C691.245 225.448 692.696 227.069 692.696 230.312V239.528C692.696 242.259 692.184 244.221 691.16 245.416C690.307 246.44 688.6 247.293 686.04 247.976C678.872 249.853 671.533 250.792 664.024 250.792ZM747.652 250.536C737.583 250.536 729.903 247.72 724.612 242.088C719.492 236.285 716.932 227.923 716.932 217V65.192C716.932 61.4373 718.809 59.56 722.564 59.56H741.508C745.263 59.56 747.14 61.4373 747.14 65.192V214.696C747.14 218.963 747.908 222.035 749.444 223.912C751.151 225.789 753.881 226.728 757.636 226.728C758.489 226.728 759.428 226.643 760.452 226.472C761.476 226.301 762.329 226.216 763.012 226.216C766.255 226.216 767.876 228.008 767.876 231.592V242.088C767.876 245.672 766.084 247.891 762.5 248.744C757.38 249.939 752.431 250.536 747.652 250.536ZM806.476 304.808C800.161 304.808 794.785 304.125 790.348 302.76C788.129 302.077 786.679 301.139 785.996 299.944C785.313 298.92 784.972 297.128 784.972 294.568V285.864C784.972 282.451 786.337 280.744 789.068 280.744C789.921 280.744 790.945 280.829 792.14 281C793.335 281.171 795.297 281.256 798.028 281.256C805.367 281.256 810.828 279.891 814.412 277.16C817.996 274.6 821.495 268.712 824.908 259.496L828.236 250.536L779.852 126.376C779.169 124.669 778.828 123.304 778.828 122.28C778.828 119.891 780.364 118.696 783.436 118.696H804.172C807.756 118.696 809.975 120.317 810.828 123.56L842.572 221.864L874.828 123.56C875.681 120.317 877.9 118.696 881.484 118.696H900.94C904.012 118.696 905.548 119.891 905.548 122.28C905.548 123.304 905.207 124.669 904.524 126.376L848.716 269.736C843.937 282.195 838.305 291.155 831.82 296.616C825.335 302.077 816.887 304.808 806.476 304.808Z" fill="white"/>
</svg>
